# xmcd
#
# Track frame offsets:
#	150
#	24651
#	59442
#	72294
#	108667
#	148009
#	165691
#	194713
#	207671
#	243247
#	252949
#	272185
#
# Disc length: 3838 seconds
#
# Revision: 2
# Processed by: cddbd v1.5.2PL0 Copyright (c) Steve Scherf et al.
# Submitted via: audiograbber 1.83.01
#
DISCID=c10efc0c
DTITLE=Bill Bruford's Earthworks - Random Acts Of Happiness-2019 Summerfold Rem
DTITLE=aster
DYEAR=2003
DGENRE=Jazz
TTITLE0=My Heart Declares A Holiday
TTITLE1=White Knuckle Wedding
TTITLE2=Turn And Return
TTITLE3=Tramontana
TTITLE4=Bajo Del Sol
TTITLE5=Seems A Lifetime Ago [part 1]
TTITLE6=Modern Folk
TTITLE7=With Friends Like These ...
TTITLE8=Speaking With Wooden Tongues
TTITLE9=One Of A Kind [Part 1]
TTITLE10=One Of A Kind [Part 2]
TTITLE11=Beelzebub [Bonus Track]
EXTD=
EXTT0=
EXTT1=
EXTT2=
EXTT3=
EXTT4=
EXTT5=
EXTT6=
EXTT7=
EXTT8=
EXTT9=
EXTT10=
EXTT11=
PLAYORDER=
